HIERARCHY
ROOT SpineBase
{
  OFFSET 0.000000 0.000000 0.000000
  CHANNELS 6 Xposition Yposition Zposition Zrotation Xrotation Yrotation
  JOINT SpineMid
  {
    OFFSET 0.000000 32.853641 0.000000
    CHANNELS 3 Zrotation Xrotation Yrotation
    JOINT SpineShoulder
    {
      OFFSET -0.091722 24.429912 -0.738235
      CHANNELS 3 Zrotation Xrotation Yrotation
      JOINT Neck
      {
        OFFSET -0.081968 8.092555 -0.589185
        CHANNELS 3 Zrotation Xrotation Yrotation
        JOINT Head
        {
          OFFSET -6.469183 11.106071 4.362024
          CHANNELS 3 Zrotation Xrotation Yrotation
          End Site
          {
            OFFSET 0 0 0
          }
        }
      }
      JOINT ShoulderLeft
      {
        OFFSET -3.099537 -1.609339 -18.284984
        CHANNELS 3 Zrotation Xrotation Yrotation
        JOINT ElbowLeft
        {
          OFFSET 11.265672 -22.905904 -1.586557
          CHANNELS 3 Zrotation Xrotation Yrotation
          JOINT WristLeft
          {
            OFFSET -14.271782 -21.153128 0.531505
            CHANNELS 3 Zrotation Xrotation Yrotation
            JOINT HandLeft
            {
              OFFSET 0.029181 -3.715485 7.918120
              CHANNELS 3 Zrotation Xrotation Yrotation
              JOINT HandTipLeft
              {
                OFFSET -0.047182 -0.093443 -1.178857
                CHANNELS 3 Zrotation Xrotation Yrotation
                End Site
                {
                  OFFSET 0 0 0
                }
              }
              JOINT ThumbLeft
              {
                OFFSET -0.186411 1.524897 -2.489048
                CHANNELS 3 Zrotation Xrotation Yrotation
                End Site
                {
                  OFFSET 0 0 0
                }
              }
            }
          }
        }
      }
      JOINT ShoulderRight
      {
        OFFSET 4.644175 -2.388560 -13.697810
        CHANNELS 3 Zrotation Xrotation Yrotation
        JOINT ElbowRight
        {
          OFFSET 5.893220 -23.210739 -6.136433
          CHANNELS 3 Zrotation Xrotation Yrotation
          JOINT WristRight
          {
            OFFSET -3.159523 -25.217343 -1.554879
            CHANNELS 3 Zrotation Xrotation Yrotation
            JOINT HandRight
            {
              OFFSET -2.008938 -7.917270 0.795161
              CHANNELS 3 Zrotation Xrotation Yrotation
              JOINT HandTipRight
              {
                OFFSET -3.598028 -7.057303 -0.458607
                CHANNELS 3 Zrotation Xrotation Yrotation
                End Site
                {
                  OFFSET 0 0 0
                }
              }
              JOINT ThumbRight
              {
                OFFSET -1.752758 4.210901 0.658180
                CHANNELS 3 Zrotation Xrotation Yrotation
                End Site
                {
                  OFFSET 0 0 0
                }
              }
            }
          }
        }
      }
    }
  }
  JOINT HipLeft
  {
    OFFSET -7.046796 1.567730 2.283289
    CHANNELS 3 Zrotation Xrotation Yrotation
    JOINT KneeLeft
    {
      OFFSET 15.706145 -43.681435 -6.783353
      CHANNELS 3 Zrotation Xrotation Yrotation
      JOINT AnkleLeft
      {
        OFFSET 4.614831 -27.209588 12.453407
        CHANNELS 3 Zrotation Xrotation Yrotation
        JOINT FootLeft
        {
          OFFSET 7.788255 0.130160 -11.853137
          CHANNELS 3 Zrotation Xrotation Yrotation
          End Site
          {
            OFFSET 0 0 0
          }
        }
      }
    }
  }
  JOINT HipRight
  {
    OFFSET 6.578062 1.079180 -9.684280
    CHANNELS 3 Zrotation Xrotation Yrotation
    JOINT KneeRight
    {
      OFFSET 5.259204 -30.774252 0.824175
      CHANNELS 3 Zrotation Xrotation Yrotation
      JOINT AnkleRight
      {
        OFFSET 8.040306 -33.074993 5.066719
        CHANNELS 3 Zrotation Xrotation Yrotation
        JOINT FootRight
        {
          OFFSET 5.456923 -2.668370 -11.732856
          CHANNELS 3 Zrotation Xrotation Yrotation
          End Site
          {
            OFFSET 0 0 0
          }
        }
      }
    }
  }
}
MOTION
Frames: 16
Frame Time: 0.033333
23.932955 72.071530 305.743770 -0.000000 0.000000 41.294870 0.000000 0.000000 -41.294870 -0.000000 0.000000 0.000000 -0.000000 0.000000 0.000000 0.000000 0.000000 0.000000 -0.000000 0.000000 0.000000 -0.000000 0.000000 0.000000 -0.000000 0.000000 0.000000 -0.000000 0.000000 0.000000 0.000000 0.000000 0.000000 0.000000 0.000000 0.000000 -0.000000 0.000000 0.000000 -0.000000 0.000000 0.000000 -0.000000 0.000000 0.000000 -0.000000 0.000000 0.000000 0.000000 0.000000 0.000000 0.000000 0.000000 0.000000 0.000000 0.000000 -41.294870 -0.000000 0.000000 0.000000 -0.000000 0.000000 0.000000 0.000000 0.000000 0.000000 0.000000 0.000000 -41.294870 -0.000000 0.000000 0.000000 -0.000000 0.000000 0.000000 0.000000 0.000000 0.000000
23.932821 72.102210 305.767285 0.007206 0.071990 41.385315 -0.053000 -0.049249 -41.385343 -0.000000 0.000000 0.000000 -0.000000 0.000000 0.000000 0.000000 0.000000 0.000000 -0.000000 0.000000 0.000000 -0.000000 0.000000 0.000000 0.266767 1.058131 0.585873 -0.010042 -15.886870 -4.104175 0.000000 0.000000 0.000000 0.000000 0.000000 0.000000 -1.720568 -0.840324 0.230259 1.724114 0.833024 -0.255412 1.969559 -1.474344 0.599130 1.542563 1.637934 -0.967977 0.000000 0.000000 0.000000 0.000000 0.000000 0.000000 1.491313 1.758745 -40.550386 0.001518 -2.377607 -0.857967 1.593237 2.428757 0.161029 0.000000 0.000000 0.000000 -0.053000 -0.049249 -41.385343 -0.000000 0.000000 0.000000 -0.000000 0.000000 0.000000 0.000000 0.000000 0.000000
23.940201 72.126900 305.778893 0.022302 0.144994 41.480257 -0.112747 -0.093855 -41.480377 -0.000000 0.000000 0.000000 -0.000000 0.000000 0.000000 0.000000 0.000000 0.000000 -0.000000 0.000000 0.000000 -0.000000 0.000000 0.000000 0.609062 1.704910 1.344849 -1.247089 -28.166468 -7.882973 0.000000 0.000000 0.000000 0.000000 0.000000 0.000000 -3.045518 -1.487753 0.392037 3.816728 2.018529 -0.610572 2.737747 -3.148691 1.240796 2.740729 2.852153 -1.808353 0.000000 0.000000 0.000000 0.000000 0.000000 0.000000 2.978061 3.599517 -39.833266 1.224508 -4.333275 -0.998488 1.981586 4.273659 -0.371610 0.000000 0.000000 0.000000 -0.112747 -0.093855 -41.480377 -0.000000 0.000000 0.000000 -0.000000 0.000000 0.000000 0.000000 0.000000 0.000000
23.955094 72.145602 305.778594 0.045298 0.218970 41.579633 -0.179207 -0.133735 -41.579929 -0.000000 0.000000 0.000000 -0.000000 0.000000 0.000000 0.000000 0.000000 0.000000 -0.000000 0.000000 0.000000 -0.000000 0.000000 0.000000 1.028887 1.957294 2.272825 -3.364085 -36.754754 -11.499401 0.000000 0.000000 0.000000 0.000000 0.000000 0.000000 -3.984229 -1.942474 0.499606 5.029190 2.632574 -0.829971 3.536282 -4.103418 1.664324 3.589305 3.683145 -2.447760 0.000000 0.000000 0.000000 0.000000 0.000000 0.000000 4.442333 5.503069 -39.153873 1.760991 -6.624498 -1.498626 3.008263 6.338512 -0.607944 0.000000 0.000000 0.000000 -0.179207 -0.133735 -41.579929 -0.000000 0.000000 0.000000 -0.175919 0.043704 0.864208 0.000000 0.000000 0.000000
23.977500 72.158315 305.766388 0.076192 0.293876 41.683392 -0.252335 -0.168806 -41.683959 -0.000000 0.000000 0.000000 -0.000000 0.000000 0.000000 0.000000 0.000000 0.000000 -0.000000 0.000000 0.000000 -0.000000 0.000000 0.000000 1.531270 1.832544 3.366872 -6.042766 -42.326864 -14.996755 0.000000 0.000000 0.000000 0.000000 0.000000 0.000000 -4.544578 -2.205711 0.563021 5.770588 2.985533 -0.970008 3.958252 -4.653871 1.916812 4.090271 4.165395 -2.839516 0.000000 0.000000 0.000000 0.000000 0.000000 0.000000 5.864279 7.445277 -38.521893 2.245964 -8.958735 -1.996850 4.041533 8.325091 -0.871366 0.000000 0.000000 0.000000 -0.252335 -0.168806 -41.683959 -0.000000 0.000000 0.000000 -0.209830 0.065431 1.057829 0.000000 0.000000 0.000000
24.007419 72.165040 305.742276 0.114975 0.369666 41.791491 -0.332077 -0.198990 -41.792438 -0.000000 0.000000 0.000000 0.333750 -0.586387 -0.471089 0.000000 0.000000 0.000000 -0.000000 0.000000 0.000000 -0.000000 0.000000 0.000000 2.123664 1.348417 4.624743 -8.989771 -45.580985 -18.306819 0.000000 0.000000 0.000000 0.000000 0.000000 0.000000 -4.731773 -2.278586 0.588186 6.037951 3.079122 -1.021699 4.006913 -4.805165 1.983329 4.246193 4.321018 -2.958582 0.000000 0.000000 0.000000 0.000000 0.000000 0.000000 7.222591 9.397769 -37.945690 2.680306 -11.299865 -2.491226 5.068449 10.214255 -1.154509 0.000000 0.000000 0.000000 -1.053557 -0.577809 -41.935446 0.283587 0.763934 0.136226 -0.231463 0.090945 1.204643 0.000000 0.000000 0.000000
24.047223 72.168702 305.699069 0.160157 0.447938 41.983758 -0.418687 -0.225831 -41.985209 -0.000000 0.000000 0.000000 0.411757 -0.645472 -0.535449 0.000000 0.000000 0.000000 -0.000000 0.000000 0.000000 -0.000000 0.000000 0.000000 3.897917 -2.041929 8.042241 -15.415201 -46.526067 -24.778215 0.000000 0.000000 0.000000 0.000000 0.000000 0.000000 -3.799593 -1.923656 0.458519 4.972126 2.311277 -0.753087 3.022624 -4.107514 1.647883 4.802012 2.932752 -2.023070 0.000000 0.000000 0.000000 0.000000 0.000000 0.000000 9.239772 12.364642 -37.198573 3.419246 -14.180844 -3.034614 7.397820 13.477653 -1.803337 0.000000 0.000000 0.000000 -1.274426 -0.778261 -42.167878 0.263484 0.983864 0.172909 -0.252092 0.127354 1.368582 0.000000 0.000000 0.000000
24.100213 72.151984 305.644808 0.218127 0.511318 42.193899 -0.505031 -0.232313 -42.195897 -0.000000 0.000000 0.000000 0.538735 -0.592766 -0.553696 0.000000 0.000000 0.000000 -0.000000 0.000000 0.000000 -0.000000 0.000000 0.000000 5.946066 -6.002789 11.602519 -18.069410 -41.281929 -26.113729 0.000000 0.000000 0.000000 0.000000 0.000000 0.000000 -4.106673 -1.669650 0.610263 4.125875 1.621547 -0.728542 5.401819 -4.510725 1.916158 -0.234005 5.028101 -2.511192 0.000000 0.000000 0.000000 0.000000 0.000000 0.000000 10.968511 15.045190 -36.656507 3.808068 -17.523845 -3.753928 8.575822 15.563182 -2.212496 0.000000 0.000000 0.000000 -1.401864 -1.018212 -42.411770 0.132191 1.185059 0.204719 -0.236179 0.145864 1.335178 0.000000 0.000000 0.000000
24.157590 72.145349 305.561300 0.277198 0.601408 42.394203 -0.610208 -0.257248 -42.397027 -0.000000 0.000000 0.000000 0.610533 -0.451782 -0.499768 0.000000 0.000000 0.000000 -0.000000 0.000000 0.000000 -0.000000 0.000000 0.000000 4.972207 -4.607396 9.889017 -17.271511 -43.065038 -27.046101 0.000000 0.000000 0.000000 0.000000 0.000000 0.000000 -4.223279 -1.495175 0.691118 6.258326 1.139559 -0.935702 2.297738 -3.907910 1.737470 -0.401319 6.779271 -3.297445 0.000000 0.000000 0.000000 0.000000 0.000000 0.000000 11.818339 16.827243 -36.380278 4.113819 -20.428244 -4.371738 8.399705 16.347207 -2.302469 0.000000 0.000000 0.000000 -0.856387 -2.026078 -42.626052 -2.406847 1.361845 0.033526 2.204666 2.329755 1.054700 0.000000 0.000000 0.000000
24.178435 72.114766 305.488692 0.299346 0.708803 42.319248 -0.698556 -0.322537 -42.323066 -0.000000 0.000000 0.000000 -0.000000 0.000000 0.000000 0.000000 0.000000 0.000000 -0.000000 0.000000 0.000000 -0.000000 0.000000 0.000000 5.073676 -3.979709 10.178722 -18.216652 -41.247822 -30.630241 0.000000 0.000000 0.000000 0.000000 0.000000 0.000000 -3.361007 -1.169145 0.563387 5.183871 0.708594 -0.721532 1.290508 -0.979648 0.750897 -1.133128 5.262727 -2.851044 0.000000 0.000000 0.000000 0.000000 0.000000 0.000000 11.500203 17.019698 -36.217794 3.889333 -21.942693 -4.927197 9.016276 17.972115 -3.104875 0.000000 0.000000 0.000000 -1.279247 -2.078471 -42.603338 -1.834068 1.607131 0.127686 0.575888 0.993542 4.130106 0.000000 0.000000 0.000000
24.220620 72.100814 305.422939 0.381944 0.842544 41.966291 -0.847407 -0.371029 -41.971843 -0.000000 0.000000 0.000000 0.412842 -0.531643 -0.469780 0.000000 0.000000 0.000000 -0.000000 0.000000 0.000000 -0.000000 0.000000 0.000000 4.326824 0.978695 9.342951 -18.658654 -50.545598 -26.628444 0.000000 0.000000 0.000000 0.000000 0.000000 0.000000 -2.806141 -0.701543 0.551040 3.371671 1.340495 -0.712896 3.888524 -1.367582 0.824895 -1.547980 5.660855 -3.492998 0.000000 0.000000 0.000000 0.000000 0.000000 0.000000 10.414966 15.444130 -36.261393 2.874084 -21.746961 -5.236102 5.971932 15.086217 -0.674147 0.000000 0.000000 0.000000 -2.849212 -1.137476 -42.350889 0.963803 1.914508 0.336587 -0.536955 -0.568499 1.234451 0.000000 0.000000 0.000000
24.225704 72.251215 305.830790 0.355729 0.441777 41.417276 -0.559017 -0.095957 -41.419116 -0.000000 0.000000 0.000000 0.221619 -0.662495 -0.472201 0.000000 0.000000 0.000000 -0.000000 0.000000 0.000000 -0.000000 0.000000 0.000000 3.763846 -1.045179 7.882251 -15.536705 -53.726933 -20.731468 0.000000 0.000000 0.000000 0.000000 0.000000 0.000000 -0.751598 -0.428656 0.087293 -1.491347 4.119209 -0.326376 0.836341 1.286206 -1.039182 3.509218 2.092236 -2.200640 0.000000 0.000000 0.000000 0.000000 0.000000 0.000000 11.852236 15.755826 -35.815869 -0.977490 -22.264677 -7.651259 2.614964 6.873666 0.364578 0.000000 0.000000 0.000000 -4.799389 1.662689 -41.733644 6.362940 2.422628 0.774393 -5.868822 -9.696532 -3.982379 0.000000 0.000000 0.000000
24.356957 72.252242 305.606215 0.587448 0.842732 41.056903 -0.996486 -0.249578 -41.063393 0.598069 0.569575 0.046354 -0.243028 -1.505415 -0.732002 0.000000 0.000000 0.000000 -0.598559 -0.569060 -0.052299 -0.000000 0.000000 0.000000 2.907220 3.369926 6.539899 -12.807928 -61.770025 -14.467908 0.000000 0.000000 0.000000 0.000000 0.000000 0.000000 1.003641 0.759104 -0.140091 -8.503241 6.596255 -0.182006 -2.407808 6.715766 -3.697271 8.948635 -2.933387 0.152853 0.000000 0.000000 0.000000 0.000000 0.000000 0.000000 12.065895 15.858158 -35.400502 -2.378119 -24.870626 -8.777212 -2.922816 -0.234773 1.117034 0.000000 0.000000 0.000000 -8.825303 4.576054 -41.271434 13.752699 3.171630 1.285393 -10.250417 -14.027589 -9.748409 0.000000 0.000000 0.000000
24.601298 72.150589 304.889503 1.046337 1.829803 40.937923 -0.698294 -0.422093 -40.926125 0.277063 -0.067620 0.063299 -0.157543 -2.161261 -1.116887 0.000000 0.000000 0.000000 -1.074029 -0.984198 -0.097340 -0.000000 0.000000 0.000000 2.105304 9.280410 5.302591 -6.895910 -69.836772 -4.251434 0.000000 0.000000 0.000000 0.000000 0.000000 0.000000 1.823946 2.538887 -0.006988 -15.825182 10.531706 -0.371148 0.882782 6.135964 -4.612867 8.865896 -3.587814 0.025807 0.000000 0.000000 0.000000 0.000000 0.000000 0.000000 13.786150 15.829781 -35.187634 -5.965900 -29.297843 -11.020900 -5.829895 -3.716297 4.379733 0.000000 0.000000 0.000000 -13.796191 7.079759 -41.006423 21.386650 4.347193 1.741930 -24.463900 -29.651539 -20.578336 0.000000 0.000000 0.000000
25.145587 71.846966 303.706667 1.895840 3.266726 41.212254 -1.268293 -0.607130 -41.219469 0.342799 -0.265928 0.101920 0.736847 -2.727859 -1.604023 0.000000 0.000000 0.000000 -1.688764 -1.704306 -0.165191 -0.000000 0.000000 0.000000 1.248661 15.197607 3.651592 12.526053 -77.567033 20.761302 0.000000 0.000000 0.000000 0.000000 0.000000 0.000000 3.946621 4.158145 -0.277493 -25.490544 15.069042 -0.049679 -2.278092 13.357914 -7.429767 16.676797 -9.144252 4.001072 0.000000 0.000000 0.000000 0.000000 0.000000 0.000000 10.129577 16.062030 -35.125148 -0.146039 -33.877692 -8.151114 -13.093890 -5.406998 4.984634 0.000000 0.000000 0.000000 -21.389294 11.192546 -40.727241 33.226960 5.991764 2.235069 -34.378145 -33.245624 -32.805752 0.000000 0.000000 0.000000
25.304841 71.630485 302.523226 2.420485 4.535206 41.589659 -1.454857 -0.764609 -41.618817 0.381160 -0.417506 0.139266 1.844774 -3.279231 -1.999280 0.000000 0.000000 0.000000 -2.229435 -2.572660 -0.238123 -0.000000 0.000000 0.000000 0.534781 19.580754 1.901942 51.005142 -79.882546 64.634179 0.000000 0.000000 0.000000 0.000000 0.000000 0.000000 4.390854 7.677299 0.314549 -32.241472 18.544278 -1.400075 -7.515772 21.065485 -9.877872 24.926538 -13.177312 8.918603 0.000000 0.000000 0.000000 0.000000 0.000000 0.000000 6.051746 15.786074 -35.285508 8.812770 -37.104109 -2.744024 -24.814166 -11.417708 3.356202 0.000000 0.000000 0.000000 -26.060576 13.327344 -40.760815 38.185674 8.324436 2.452728 -38.844019 -37.142080 -33.053541 0.000000 0.000000 0.000000
